<?xml version="1.0" encoding="utf-8"?>
<!-- Generator: Adobe Illustrator 21.0.0, SVG Export Plug-In . SVG Version: 6.00 Build 0)  -->
<svg version="1.1" id="Layer_1" xmlns="http://www.w3.org/2000/svg" xmlns:xlink="http://www.w3.org/1999/xlink" x="0px" y="0px"
	 viewBox="0 0 744.6 66.6" style="enable-background:new 0 0 744.6 66.6;" xml:space="preserve">
<style type="text/css">
	.st0{fill:#C05F66;}
</style>
<title>slogan</title>
<g id="Layer_2">
	<g id="Layer_1-2">
		<path class="st0" d="M26.6,53.2V39.9H0V0h13.3v26.6h13.3V0h13.3v53.2H26.6z M0,66.6V53.2h26.6v13.3L0,66.6L0,66.6z"/>
		<path class="st0" d="M105.2,66.6V39.9H91.9v26.6H78.6V0h13.3v26.6h13.3V0h13.3v66.6H105.2z"/>
		<path class="st0" d="M151.5,66.6V39.9h-13.3v26.6h-13.3V0h39.9v66.6H151.5z M151.5,13.3h-13.3v13.3h13.3V13.3z"/>
		<path class="st0" d="M171.2,66.6V0h39.9v13.3h-26.6v39.9h26.6v13.3L171.2,66.6L171.2,66.6z"/>
		<path class="st0" d="M246.8,66.6V0h39.9v26.6H300v39.9L246.8,66.6L246.8,66.6z M273.4,13.3h-13.3v13.3h13.3V13.3z M286.7,39.9
			h-26.6v13.3h26.6V39.9z"/>
		<path class="st0" d="M306.3,66.6V0h39.9v13.3h-26.6v39.9h26.6v13.3L306.3,66.6L306.3,66.6z"/>
		<path class="st0" d="M352.6,66.6V0h39.9v13.3h-26.6v13.3h13.3v13.3h-13.3v13.3h26.6v13.3L352.6,66.6L352.6,66.6z"/>
		<path class="st0" d="M398.9,66.6V0h39.9v13.3h-26.6v53.2L398.9,66.6L398.9,66.6z"/>
		<path class="st0" d="M472.9,13.3h-13.3V0h26.6v53.2h13.3v13.3H433V53.2h13.3V13.3h13.3v39.9h13.3L472.9,13.3L472.9,13.3z"/>
		<path class="st0" d="M532.5,66.6V39.9h-13.3v26.6h-13.3V0h39.9v66.6H532.5z M532.5,13.3h-13.3v13.3h13.3V13.3z"/>
		<path class="st0" d="M612.1,66.6V39.9h-26.6V0h39.9v66.6H612.1z M612.1,13.3h-13.3v13.3h13.3V13.3z"/>
		<path class="st0" d="M631.8,66.6V0h39.9v66.6H631.8z M658.4,13.3h-13.3v39.9h13.3V13.3z"/>
		<path class="st0" d="M678.2,39.9V26.6h20v13.3H678.2z"/>
		<path class="st0" d="M704.7,66.6V0h39.9v13.3H718v13.3h13.3v13.3H718v13.3h26.6v13.3L704.7,66.6L704.7,66.6z"/>
		<path class="st0" d="M585.5,53.3h32.9v13.3h-32.9V53.3z"/>
	</g>
</g>
</svg>
