<svg xmlns="http://www.w3.org/2000/svg" viewBox="0 0 572.62 256.96"><defs><style>.cls-1{opacity:0.8;}.cls-2{fill:#fff;}</style></defs><title>qiwi</title><g id="Layer_2" data-name="Layer 2"><g id="Layer_1-2" data-name="Layer 1"><g class="cls-1"><path class="cls-2" d="M211.79,173.51c-4.21-28.32-20.2-44.58-47.59-50.15a4.64,4.64,0,0,1,1.49-.54c7.37.07,14.74.13,22.1.35,1.63,0,2.29-.27,2.41-2,1.84-26.52-7.26-48.51-27.5-65.7a71.18,71.18,0,0,0-39.53-16.82C98,36.06,76.46,43.9,59,62.16a72,72,0,0,0-20,42.61c-2.91,25.64,5.12,47.45,23.75,65.14a72,72,0,0,0,44.3,19.89c3.07.27,6.17.28,9.25.45,1.52.08,1.86-.51,1.75-2-.49-6.6-.85-13.2-1.2-19.81a15.57,15.57,0,0,1,.57-3c.95,1.33,1.59,2.09,2.09,2.95,5.67,9.73,12.5,18.48,21.4,25.49,10.1,8,21.65,12.67,34.11,15.39,12.09,2.63,24,5.85,35.09,11.52,15,7.68,26.95,18.93,37.32,32,.88,1.11,1.69,2.36.31,3.58s-2.53.54-3.65-.43a152.5,152.5,0,0,0-23.37-17c-12.07-7-24.92-12-38.86-13-9.42-.69-19-.07-28.42.23-5.86.19-11.7,1-17.56,1.31-8.42.44-16.86,1-25.29.94a105.4,105.4,0,0,1-51.72-14.16c-30-17.1-48.87-42.64-56.4-76.36A108.56,108.56,0,0,1,.79,101.45,111.71,111.71,0,0,1,25.26,42.84q25.92-32,66.38-40.48A106.18,106.18,0,0,1,119,.14c27.72,1.49,52.06,11.35,72.53,30.21,19,17.55,31,39.22,35.23,64.73,4.48,26.76,0,52.16-13.35,75.89C213.06,171.65,212.6,172.27,211.79,173.51Z"/><path class="cls-2" d="M451.46,86.68c.31-.79.65-1.57.92-2.37,5.08-15.14,10.19-30.27,15.18-45.44.74-2.23,1.84-3.18,4.23-3.05a87.76,87.76,0,0,0,10,0c2.44-.15,3.48.91,4.2,3.09,4.92,15,9.94,29.88,14.94,44.82.33,1,.72,1.94,1.32,3.57.59-1.43,1-2.25,1.26-3.12q6.82-22.35,13.6-44.72c1.1-3.63,1.12-3.63,4.82-3.63,5.28,0,10.56,0,15.85,0,3.21,0,3.9,1,2.88,4Q527,80.33,513.43,120.79c-.74,2.21-1.85,3.15-4.24,3-3.76-.18-7.54,0-11.32,0s-3.66,0-4.8-3.39q-7.45-22.15-14.91-44.3a4.9,4.9,0,0,0-1.5-2.33c-.37.95-.77,1.88-1.09,2.84Q468.27,98.44,461,120.3c-1.14,3.41-1.23,3.47-4.76,3.47-4.07,0-8.15,0-12.22,0a2.83,2.83,0,0,1-3.14-2.24Q427.1,80.43,413.27,39.32c-.86-2.58-.17-3.48,2.57-3.49,5.58,0,11.17.07,16.75,0,2,0,3,.78,3.54,2.65q6.74,22.38,13.58,44.72c.36,1.18.75,2.34,1.12,3.51Z"/><path class="cls-2" d="M361.22,123.75c-2.64,0-5.29-.17-7.91,0a6.16,6.16,0,0,1-5.94-2.85c-2-2.72-2.1-2.65-4.93-1.1a46,46,0,0,1-67.35-29.79C269,65,285.83,39.13,311.25,34.45S360.62,46,365.32,71.24a44.83,44.83,0,0,1-5.34,31.4c-1,1.8-.82,2.88.46,4.32,3.85,4.34,7.61,8.77,11.34,13.22a12,12,0,0,1,1.26,2.49,11.25,11.25,0,0,1-3,1C367.11,123.84,364.16,123.75,361.22,123.75Zm-29.35-21.26c-3-3.65-5.81-7.06-8.54-10.55a3.33,3.33,0,0,1-.69-2.38c.07-.38,1.36-.72,2.1-.73,5.28-.06,10.56-.14,15.83,0,2.22.07,3.09-.85,3.51-2.84a29.13,29.13,0,0,0,0-12.75c-3.5-15.07-18.83-23.51-32.74-18.07-10.74,4.21-17.37,15.7-16,27.69,1.37,11.75,9.85,20.88,21.35,22.54A21.6,21.6,0,0,0,331.87,102.49Z"/><path class="cls-2" d="M404.47,79.76q0,20.24,0,40.49c0,3.29-.23,3.52-3.43,3.53-4.9,0-9.8,0-14.7,0-2,0-2.86-.79-2.86-2.82q0-41.28,0-82.56c0-2,.94-2.63,2.79-2.61,5,0,10,0,14.93,0,3,0,3.27.27,3.27,3.22Q404.48,59.4,404.47,79.76Z"/><path class="cls-2" d="M548.7,79.68q0-20.26,0-40.51c0-3.1.26-3.34,3.38-3.35h13.58c3.77,0,4,.25,4,3.94q0,31,0,62,0,9.28,0,18.56c0,3.05-.38,3.44-3.34,3.45q-7.24,0-14.49,0c-2.8,0-3.15-.34-3.15-3.12Q548.68,100.17,548.7,79.68Z"/><path class="cls-2" d="M384.79,187.67V160h8.35v27.65h11.32V160h8.12v35.29H365.8V160h7.64v27.69Z"/><path class="cls-2" d="M289.48,145.85V166a54,54,0,0,0,5.78-.07c.62-.07,1.33-.88,1.7-1.52q5-8.48,9.86-17a2.59,2.59,0,0,1,2.64-1.61c2.47.11,4.94,0,7.78,0-.54,1-.88,1.72-1.28,2.4-3.86,6.56-7.7,13.14-11.64,19.66a2.78,2.78,0,0,0,0,3.27c4.26,7.29,8.44,14.63,12.64,22,.36.63.67,1.3,1.16,2.25-3.2,0-6.11.08-9-.07-.59,0-1.31-.87-1.67-1.51-3.33-5.91-6.69-11.81-9.83-17.82-1-1.82-2-2.55-4-2.3a32.63,32.63,0,0,1-3.84,0v21.5H281c-.06-.8-.17-1.59-.17-2.39,0-14.79,0-29.58-.05-44.37,0-2.09.59-2.82,2.68-2.63C285.37,146,287.32,145.85,289.48,145.85Z"/><path class="cls-2" d="M358,177.73c0,10.57-8.33,18.48-19.34,18.46s-19.34-8-19.39-18.71c-.05-10.57,8.28-18.52,19.31-18.45S358,167.15,358,177.73Zm-30-.41c0,6.59,4.42,11.4,10.55,11.39s10.6-4.79,10.72-11.11a10.94,10.94,0,0,0-10.69-11.4C332.53,166.12,328,170.87,328,177.31Z"/><path class="cls-2" d="M453.3,179.17H429.05c.22,3.59,1.68,6.28,4.57,8,5.75,3.34,11,1.41,16.25-2l3.37,6.11a22,22,0,0,1-16.7,4.94c-16.26-2-19.85-18.59-13.84-28.84,4.18-7.13,13.59-10.23,21.55-7.17C451.14,162.83,455,170.68,453.3,179.17Zm-24.06-6c.73,0,1.46.1,2.19.1h13.23a6.79,6.79,0,0,0-6.11-7.68A8.36,8.36,0,0,0,429.24,173.15Z"/><path class="cls-2" d="M507.7,179.07c.45,3.94,2,6.74,5.2,8.37,5.62,2.87,10.66,1,15.71-2.32l3.34,6a20.46,20.46,0,0,1-13,5.12c-17.07.75-24.1-15.05-18.19-27.68,4-8.5,15.27-12.13,23.61-7.82,6,3.1,9,10.16,7.72,18.29Zm15.74-5.95a6.72,6.72,0,0,0-6.16-7.53,8.29,8.29,0,0,0-9.29,7.53Z"/><path class="cls-2" d="M465.64,159.92h25.6v35.3h-8.39V167h-9a30.77,30.77,0,0,1,0,3.56c-.59,5-.73,10.11-2,14.92-1.8,6.69-7.09,10.18-13.57,9.92v-7.29c5.61-1.55,6.55-6.38,7-11.25.41-4.65.29-9.34.4-14C465.66,162,465.64,161.06,465.64,159.92Z"/><path class="cls-2" d="M572.62,195.38c-3.27,0-6.19.08-9.09-.07-.63,0-1.38-.78-1.79-1.39a107.68,107.68,0,0,1-6.32-9.91c-1.54-3-3.64-3.65-6.87-2.86v14.12h-8.49V160h8.52v13.11c3.94.88,4.34.72,6.2-2.21,2-3.18,4.09-6.34,6-9.57a2.83,2.83,0,0,1,2.91-1.56c2.39.11,4.79,0,7.58,0-.59,1-1,1.66-1.4,2.31-2.88,4.33-5.7,8.71-8.69,13a2.63,2.63,0,0,0,.08,3.57c3.35,4.74,6.59,9.56,9.87,14.35C571.59,193.68,572,194.37,572.62,195.38Z"/><path class="cls-2" d="M177.81,199.84a11.93,11.93,0,0,1-11.65-13.6c.56-3.7,4.11-5.95,8.22-4.92a15.44,15.44,0,0,1,10.79,9.17C187.32,195.46,183.75,199.85,177.81,199.84Z"/><path class="cls-2" d="M204.56,175l-2.51,4.59c-1.42-.82-3.16-1.35-4.2-2.51-2.84-3.16-5-6.76-5-11.25,0-3.32,2.37-4.84,5.28-3.22a7.43,7.43,0,0,1,3.12,3.09C202.56,168.58,203.42,171.67,204.56,175Z"/></g></g></g></svg>