<svg xmlns="http://www.w3.org/2000/svg" viewBox="0 0 744.02 194.44"><defs><style>.cls-1{opacity:0.8;}.cls-2{fill:#fff;}</style></defs><title>webmoney</title><g id="Layer_2" data-name="Layer 2"><g id="Layer_1-2" data-name="Layer 1"><g class="cls-1"><path class="cls-2" d="M87,194.44c-7.14-1.72-14.44-3-21.39-5.25C26.8,176.36,0,139,0,98,0,46.74,38.1,4.85,89.11.38A95.67,95.67,0,0,1,142.06,11c1.09.56,2.11,1.26,3.73,2.25L137,21.34,123.49,7.54,100.75,27.68,87.2,13.15,45.3,50.93,72.2,80.69,61.83,90.2,88.26,120l-10.41,9.4,37.8,42.08,22.67-20.72,19.61,22.36c-1.52,1.23-2.7,2.3-4,3.2a97.68,97.68,0,0,1-44.54,17.47,12.61,12.61,0,0,0-2.12.64Z"/><path class="cls-2" d="M744,78.94c-.54,1.25-1.17,2.47-1.6,3.76q-11.66,35-23.3,70a44.14,44.14,0,0,1-2.57,6.22c-6.14,11.93-21.49,13.79-31,3.39l5.21-6.69c1.39.9,2.47,1.71,3.64,2.35,3.25,1.77,6.63,2.32,10,.42,4.23-2.38,7.89-13.11,6.07-17.66q-11.5-28.68-23-57.34c-.69-1.71-1.29-3.45-2.13-5.69H698l19.72,49.47,15.89-49.74H744Z"/><path class="cls-2" d="M279.56,56.3h12.65c.09,1.58.21,2.8.21,4,0,19.75.06,39.5,0,59.24,0,12-6.2,20.24-16.23,22.16-6.41,1.23-10.85.19-18.11-4-4.83,1.54-9.07,3.75-13.48,4.15-13.23,1.2-22.35-7.18-22.61-20.61-.29-14.74-.09-29.5-.1-44.24,0-6.73,0-13.46,0-20.64h12.91c0,1.59,0,3,0,4.49,0,19.25,0,38.5,0,57.74a18.94,18.94,0,0,0,.83,5.88c1.07,3.18,3.55,4.7,6.93,4.67s6-1.33,7-4.54a21.47,21.47,0,0,0,.92-6.61c.07-18.87,0-37.75,0-56.62,0-1.58,0-3.17,0-5.11h12.81c0,1.86,0,3.45,0,5q0,27.56,0,55.12a33.65,33.65,0,0,0,.61,6.69c.86,4.16,3.64,6.19,7.79,6s6.69-2.6,7.23-6.73a37.9,37.9,0,0,0,.19-4.86q0-28.12,0-56.25C279.27,59.73,279.45,58.15,279.56,56.3Z"/><path class="cls-2" d="M467.94,140.62H455.14v-5.13c0-18.75,0-37.5,0-56.24a24.68,24.68,0,0,0-.72-6.29c-.91-3.39-3.37-5.16-6.89-5.29S441,69,439.92,72.55a23.56,23.56,0,0,0-1,7c-.07,18.62,0,37.25,0,55.87,0,1.6,0,3.2,0,5.17H426.67a39.89,39.89,0,0,1-.39-4c0-19.87-.16-39.75,0-59.62s16-24.79,28-21a32.57,32.57,0,0,1,5.89,3c5.57-1.52,10.34-3.69,15.22-4,11.88-.7,20.75,7.21,21,19.1.42,21.74.1,43.49.08,65.24a5.86,5.86,0,0,1-.35,1.14h-11.9c-.12-1.66-.32-3.23-.32-4.79q0-28.12,0-56.24a29.19,29.19,0,0,0-.35-5.6,7.24,7.24,0,0,0-7.7-6.24,7.47,7.47,0,0,0-7.59,6.44,24.56,24.56,0,0,0-.25,4.48q0,28.31,0,56.62Z"/><path class="cls-2" d="M364.27,54.76h11.39v23.9c3.5-.78,6.36-1.64,9.29-2,16.26-2.25,28.49,6.33,30.77,22.58a67.82,67.82,0,0,1-.59,21.54c-2.52,13.48-12.7,21.06-26.49,21.24a44.17,44.17,0,0,1-21.94-5.33c-1.27-.69-2.71-2.52-2.71-3.84-.15-25.34-.1-50.69-.08-76A14.43,14.43,0,0,1,364.27,54.76ZM375.89,88.3v42.22c4.26.95,8.52,2.51,12.85,2.72,6.9.33,11.93-3.4,13.43-9.62A67.74,67.74,0,0,0,402.61,95c-1.34-7-8.65-11.48-15.68-10C383.29,85.74,379.78,87.11,375.89,88.3Z"/><path class="cls-2" d="M678.42,128.34l3.62,7.33c-11.24,6.36-22.66,8.5-34.71,4.14-11-4-15.79-12.78-17.32-23.79-1.26-9.06-1-18,3.2-26.36,5.14-10.34,16.44-15.48,28.43-13.12,11.25,2.21,18.49,10.33,19.39,22.14.32,4.19.05,8.42.05,13.13H643.64c-2.81,6.89,1.08,15.79,7.88,18.84,6.13,2.75,12.39,2.48,18.66.57C672.8,130.41,675.35,129.42,678.42,128.34Zm-10-25.43c1.51-7.27-.72-13.77-5.46-16.64-4.14-2.5-11-2-14.82,1-4.37,3.52-6.52,10.48-4.66,15.63Z"/><path class="cls-2" d="M353.13,112H315.74A15.67,15.67,0,0,0,325,131.2c6.68,2.46,13.27,1.59,19.78-.78,1.74-.63,3.45-1.33,5.58-2.15l3.52,6.94c-10.94,8.49-29.68,8.95-40.52,1.27a23.2,23.2,0,0,1-8.9-11.75c-3.45-10.35-3.92-20.9-.48-31.29,5.65-17,27.39-23.06,41.17-11.45a22,22,0,0,1,5.22,6.73C354.07,95.89,353.62,103.64,353.13,112Zm-12.31-9.13c1.16-8.21-1.14-14.12-6.27-16.83a13.56,13.56,0,0,0-14.41,1.55c-4.22,3.67-6.16,10.4-4.32,15.28Z"/><path class="cls-2" d="M504.31,108.79c.27-8.7,1.41-17.13,7.45-23.84,7.68-8.54,17.57-10.52,28.39-8,10.32,2.39,16.67,9.1,19.25,19.32a51.1,51.1,0,0,1,.15,24.83c-3.25,13.45-13.38,21.05-27.66,20.88-13.4-.17-23.51-8.41-26.25-21.69C504.88,116.51,504.74,112.62,504.31,108.79Zm12.84.22c.34,4.1.34,8.38,1.11,12.53,1.4,7.59,7.14,12,14.58,11.84,7.9-.21,13.76-4.73,14.42-12.47a142.75,142.75,0,0,0,0-23.51c-.62-7.74-6.27-12.38-13.8-12.67-8.14-.32-13.71,3.81-15.26,11.85C517.46,100.59,517.5,104.76,517.16,109Z"/><path class="cls-2" d="M581.23,77.42l1.14,4.45a23.46,23.46,0,0,1,3.48-1.76c4.72-1.45,9.43-3.68,14.24-4,12.32-.74,20.73,6.28,21.35,18.55.75,14.82.19,29.71.19,44.57,0,.22-.19.44-.45,1h-11c-.12-1.45-.33-2.88-.33-4.31,0-12.37,0-24.73,0-37.1,0-11.86-7.39-17-18.62-13a42.54,42.54,0,0,0-4.7,2.29c-2.85,1.43-4,3.59-3.91,6.92.18,13.49.08,27,.07,40.47,0,1.47-.14,2.94-.24,4.71H571.2V77.42Z"/><path class="cls-2" d="M140,133.38l-23.29,21-21-23.24,23.27-21Z"/><path class="cls-2" d="M123.56,93.47l-23.29,21-21-23.27,23.26-21Z"/><path class="cls-2" d="M83.71,75l-21-23.3L86,30.75l21,23.3Z"/><path class="cls-2" d="M138.62,59.55,154.4,77.13,136.91,92.87,121.1,75.39Z"/><path class="cls-2" d="M168.67,131.16l15.77,17.52L167,164.48,151.16,147Z"/><path class="cls-2" d="M138.44,42.31,120.93,58,105.13,40.6l17.51-15.86Z"/><path class="cls-2" d="M135.91,112l17.54-15.81L169.2,113.7l-17.46,15.78Z"/><path class="cls-2" d="M158.12,66.8l11.73-10.6,10.59,11.71L168.76,78.49Z"/><path class="cls-2" d="M165.73,33.65l-11.8,10.52L143.41,32.49l11.65-10.6Z"/><path class="cls-2" d="M184.63,90.51l10.6,11.73L183.5,112.83,172.92,101.1Z"/></g></g></g></svg>