<svg xmlns="http://www.w3.org/2000/svg" viewBox="0 0 490.79 93.33"><defs><style>.cls-1{opacity:0.8;}.cls-2{fill:#fff;}</style></defs><title>yandex-money</title><g id="Layer_2" data-name="Layer 2"><g id="Layer_1-2" data-name="Layer 1"><g class="cls-1"><path class="cls-2" d="M39.31,80H30.9V49.35c-2.41,0-4.58-.12-6.73.08-.54,0-1.14,1-1.45,1.71-4.07,9.05-8.13,18.12-12.09,27.22a2.45,2.45,0,0,1-2.74,1.76c-2.51-.12-5,0-7.88,0L14.88,47.52a2.91,2.91,0,0,0-.56-.61C7.69,43.1,4.17,37.29,3.46,29.76,2.91,24,3.17,18.27,5.66,12.84,9.11,5.31,15.11,1.2,23.18.38,28-.11,32.91.15,37.77,0c1.36,0,1.57.61,1.56,1.75,0,4,0,8,0,11.93q0,31.88,0,63.77ZM30.7,7.14H26.75c-6.94.06-11.31,3.28-13.3,10a28.54,28.54,0,0,0-.2,15.42c1,3.94,3.09,7.17,7.08,8.75,3.33,1.32,6.8,1.11,10.37.92Z"/><path class="cls-2" d="M95.23,23.79h26.16V73h4.37V91.12h-7.63V80.31H93.88V91.1H86.11q0-8.88,0-17.78c.1-.08.22-.23.3-.22,2.66.42,3.58-1.06,4.3-3.38C93.79,59.8,94.65,49.58,95,39.28c.15-4.45.09-8.92.14-13.38C95.14,25.24,95.19,24.57,95.23,23.79ZM112.6,72.88v-42H103c-.09,14.18-.47,28.27-5.09,42Z"/><path class="cls-2" d="M269.5,0h27.67v75.6h5.48V93.32h-4.23l-.85-13H263.33l-.83,13.06h-4.25V75.68c2.78.5,4.08-1.37,4.7-3.37A98.16,98.16,0,0,0,266.6,58c2.55-17.21,2.13-34.6,2.54-51.93,0-1.85.07-3.7.11-5.55C269.26.45,269.36.33,269.5,0Zm22.08,75.55v-71h-17.2c-.06.78-.13,1.45-.15,2.12-.33,11-.43,22.08-1,33.1-.66,12.11-.56,24.4-6.1,35.78Z"/><path class="cls-2" d="M72.4,54.94H59.33V80H50.7V23.82h8.53v23.7H72.32V23.79h8.51V80H72.4Z"/><path class="cls-2" d="M163.7,53.87H140.26c.09,5.73.22,11.27,3.58,16,2.75,3.92,6.82,4,10.92,3A56.72,56.72,0,0,0,161.94,70c.54,1.74,1.2,3.58,1.64,5.48a2,2,0,0,1-.77,1.6c-11,8.33-25.82,3.59-29.88-9.51-2.09-6.74-2-13.66-1.46-20.58.46-5.91,1.52-11.68,4.61-16.89,3.49-5.88,9.2-8.32,15.76-6.77,4.37,1,7.13,3.89,8.91,7.83,2,4.51,2.68,9.33,2.92,14.21C163.82,48.08,163.7,50.82,163.7,53.87Zm-9-7.23a34.81,34.81,0,0,0-1.52-12.37c-.81-2.34-2.22-4.11-4.94-4.24a5.34,5.34,0,0,0-5.51,4.09c-1.18,4-1.9,8.18-2.86,12.52Z"/><path class="cls-2" d="M181.49,53V80h-8.57V23.83h8.48v25l.39.13c.32-.54.67-1.06,1-1.62,3.83-7.35,7.68-14.69,11.43-22.07a2.48,2.48,0,0,1,2.69-1.61c2.18.11,4.38,0,6.92,0-.41.85-.69,1.5-1,2.12-4,7.51-7.89,15-11.92,22.52a3.43,3.43,0,0,0,0,3.75c4.7,8.59,9.29,17.25,13.91,25.88.34.64.64,1.32,1.07,2.19-3,0-5.83.09-8.61-.07-.57,0-1.28-.86-1.62-1.49-4.27-8-8.49-16-12.72-24-.32-.6-.65-1.18-1-1.77Z"/><path class="cls-2" d="M490.79,23.68V80h-4.84V33.73L473.76,60.12c-2.7,5.84-5.51,11.64-8,17.55-.88,2-2,2.89-4.11,2.49a8.34,8.34,0,0,0-1.37,0V23.84h4.6V70.47c.61-1.51,1.07-2.77,1.63-4q9.55-20.7,19.12-41.4c.46-1,1-1.55,2.13-1.42A30.62,30.62,0,0,0,490.79,23.68Z"/><path class="cls-2" d="M236.33,33.71a52.42,52.42,0,0,0-5.51-2.94c-4.46-1.74-8.52-.61-10.81,3.57A29.92,29.92,0,0,0,216.79,44a52.68,52.68,0,0,0,.84,20.61c0,.07,0,.13,0,.2,2.48,9.2,9.23,11.7,17.24,6.37l1.28-.86c.63,2,1.32,3.9,1.74,5.85.09.44-.66,1.23-1.19,1.61a17.65,17.65,0,0,1-26-6.44c-2.42-4.74-3.25-9.85-3.58-15.08-.45-7.17,0-14.26,2.67-21,4.39-11,15.77-15.56,25.93-10.44,1.39.7,1.89,1.45,1.49,3C236.8,29.7,236.64,31.68,236.33,33.71Z"/><path class="cls-2" d="M378.76,80.07h-5.08V53.24H354.42V80H349.2V23.86h5.1V48.47h19.3V23.83h5.16Z"/><path class="cls-2" d="M339.09,52.81H313.56c.22,6.85.55,13.48,4.15,19.37,2.72,4.44,8.13,6,13.2,3.61,2.36-1.1,4.39-2.92,6.58-4.42,2,2.75,1.85,4-1.09,6.34-6.7,5.36-19.52,5.67-24.42-5.49-3.37-7.68-3.82-15.77-3.48-24a40.54,40.54,0,0,1,3.14-15,25.4,25.4,0,0,1,3.57-6c6-7.2,16-6.21,20.57,2,3,5.3,3.54,11.17,3.63,17.1C339.42,48.41,339.21,50.46,339.09,52.81Zm-5-4.31c.21-4.51.36-8.9-.95-13.14a17.26,17.26,0,0,0-2.56-5.1c-3.12-4.21-7.94-4.41-11.41-.47-4.71,5.34-5.16,12-5.56,18.72Z"/><path class="cls-2" d="M391.43,79.75V23.81h5.14V44.68a43.5,43.5,0,0,1,5.07,0,39.57,39.57,0,0,1,7,1.33,12.26,12.26,0,0,1,4.41,2.54c6.15,5.55,6.24,12.7,4.52,20-1.56,6.58-6.39,10.23-12.87,11.09C400.43,80.21,396,79.75,391.43,79.75ZM396.71,76c1.53,0,2.83.08,4.11,0,4.89-.36,9.4-1.76,11.21-6.82,2.05-5.75,2.18-11.56-1.76-16.77a8.28,8.28,0,0,0-2.58-2c-3.45-1.94-7.19-1.68-11-1.51Z"/><path class="cls-2" d="M451.32,23.82v4.3H432.7V80h-5V23.82Z"/></g></g></g></svg>