<?xml version="1.0" encoding="utf-8"?>
<!-- Generator: Adobe Illustrator 21.0.0, SVG Export Plug-In . SVG Version: 6.00 Build 0)  -->
<svg version="1.1" id="Layer_1" xmlns="http://www.w3.org/2000/svg" xmlns:xlink="http://www.w3.org/1999/xlink" x="0px" y="0px"
	 viewBox="0 0 30 30" style="enable-background:new 0 0 30 30;" xml:space="preserve">
<style type="text/css">
	.st0{fill:#FFFFFF;}
</style>
<title>chronicles_2</title>
<rect x="6.8" y="25.6" class="st0" width="2.1" height="4.4"/>
<rect x="8.3" y="27.8" class="st0" width="18.4" height="2.2"/>
<rect x="10.9" y="19.8" class="st0" width="6.7" height="2.2"/>
<rect x="10.9" y="15.9" class="st0" width="12.2" height="2.2"/>
<rect x="10.9" y="7.9" class="st0" width="12.2" height="2.2"/>
<rect x="10.9" y="11.9" class="st0" width="12.2" height="2.2"/>
<rect y="0.8" class="st0" width="3" height="7"/>
<rect x="23.9" y="1.1" class="st0" width="2.2" height="3"/>
<rect x="25" y="2.6" class="st0" width="2.1" height="3"/>
<rect x="23.9" y="1.9" class="st0" width="3.1" height="2.1"/>
<rect x="22.4" y="1.1" class="st0" width="3.1" height="1.9"/>
<rect x="6" y="7.4" class="st0" width="2.9" height="19.4"/>
<rect x="25" y="4.1" class="st0" width="3" height="21.2"/>
<rect x="26.1" y="24.2" class="st0" width="3" height="5.8"/>
<rect x="4.9" y="1.1" class="st0" width="3" height="6.7"/>
<rect x="2.9" y="0" class="st0" width="21" height="3"/>
<rect x="2.2" y="7" class="st0" width="6.7" height="3"/>
</svg>
