<svg xmlns="http://www.w3.org/2000/svg" viewBox="0 0 30 27.08"><defs><style>.cls-1{fill:#fff;}</style></defs><title>music</title><g id="Layer_2" data-name="Layer 2"><g id="Layer_2-2" data-name="Layer 2"><rect class="cls-1" x="7.94" width="3.01" height="24.08"/><rect class="cls-1" x="26.99" width="3.01" height="24.08"/><rect class="cls-1" x="17.47" y="-9.53" width="3.01" height="22.06" transform="translate(17.47 20.47) rotate(-90)"/><rect class="cls-1" x="17.43" y="-1.51" width="3.01" height="22" transform="translate(9.44 28.43) rotate(-90)"/><rect class="cls-1" x="24.53" y="13.53" width="3.01" height="7.94" transform="translate(8.53 43.53) rotate(-90)"/><rect class="cls-1" x="23.03" y="23.11" width="3.01" height="4.93" transform="translate(-1.05 50.1) rotate(-90)"/><rect class="cls-1" x="19.06" y="19" width="3.01" height="5.07" transform="translate(41.12 43.07) rotate(180)"/><rect class="cls-1" x="5.47" y="13.53" width="3.01" height="7.94" transform="translate(-10.52 24.47) rotate(-90)"/><rect class="cls-1" x="3.97" y="23.11" width="3.01" height="4.93" transform="translate(-20.1 31.05) rotate(-90)"/><rect class="cls-1" y="19" width="3.01" height="5.07" transform="translate(3.01 43.07) rotate(180)"/></g></g></svg>