<?xml version="1.0" standalone="no"?>
<!DOCTYPE svg PUBLIC "-//W3C//DTD SVG 20010904//EN"
 "http://www.w3.org/TR/2001/REC-SVG-20010904/DTD/svg10.dtd">
<svg version="1.0" xmlns="http://www.w3.org/2000/svg"
 width="260.000000pt" height="260.000000pt" viewBox="0 0 260.000000 260.000000"
 preserveAspectRatio="xMidYMid meet">
<metadata>
Created by potrace 1.11, written by Peter Selinger 2001-2013
</metadata>
<g transform="translate(0.000000,260.000000) scale(0.100000,-0.100000)"
fill="#000000" stroke="none">
<path d="M174 2428 c1 -195 8 -218 87 -308 21 -24 39 -52 39 -61 0 -22 -45
-31 -91 -17 -48 14 -136 3 -177 -22 l-32 -20 0 -346 0 -347 25 -33 c45 -59
145 -91 197 -63 30 16 51 74 42 123 -8 52 -45 136 -78 179 -32 41 -32 47 -3
39 37 -9 108 -62 118 -89 5 -13 9 -62 9 -109 0 -102 14 -140 76 -206 45 -48
46 -51 39 -96 -8 -56 -13 -66 -80 -162 -71 -102 -94 -149 -101 -213 -10 -87 1
-123 55 -177 48 -48 100 -72 188 -85 36 -6 42 -10 47 -38 13 -67 58 -142 121
-203 59 -57 64 -64 70 -117 l7 -57 209 0 209 0 0 27 c0 14 -16 75 -35 134 -26
81 -35 126 -35 177 0 73 -19 143 -69 256 -17 36 -27 66 -23 66 4 0 41 -20 83
-44 72 -42 98 -66 161 -149 15 -19 69 -63 121 -98 58 -39 155 -123 252 -216
l158 -153 390 0 390 0 -86 89 c-64 67 -89 99 -97 131 -14 51 -72 116 -181 202
-42 33 -105 95 -140 137 -96 116 -216 230 -304 290 -163 110 -423 312 -520
403 l-100 95 37 31 c20 18 55 69 79 115 86 166 190 338 322 533 146 217 148
222 207 462 l27 112 -362 0 -362 0 -21 -67 c-11 -38 -25 -102 -31 -143 -8 -54
-24 -102 -60 -175 -27 -55 -56 -127 -65 -160 -38 -150 -36 -147 -32 -55 3 52
-1 114 -10 160 -9 41 -19 122 -23 180 -8 116 -32 176 -98 247 -9 10 -75 13
-281 13 l-269 0 1 -172z"/>
</g>
</svg>
